<mxfile modified="2023-09-25T14:06:26.151Z" host="app.diagrams.net" agent="Mozilla/5.0 (Windows NT 10.0; Win64; x64) AppleWebKit/537.36 (KHTML, like Gecko) Chrome/116.0.0.0 Safari/537.36" etag="5RrR0E_-Hh3cMsadZ11S" version="21.7.5" type="github">
  <diagram id="Ht1M8jgEwFfnCIfOTk4-" name="Page-1">
    <mxGraphModel dx="1395" dy="632" grid="1" gridSize="10" guides="1" tooltips="1" connect="1" arrows="1" fold="1" page="1" pageScale="1" pageWidth="1169" pageHeight="827" math="0" shadow="0">
      <root>
        <mxCell id="0" />
        <mxCell id="1" parent="0" />
        <mxCell id="UEzPUAAOIrF-is8g5C7q-116" value="Bueckt Amazon S3&lt;br&gt;Armazenamento das Faturas" style="outlineConnect=0;fontColor=#232F3E;gradientColor=#60A337;gradientDirection=north;fillColor=#277116;strokeColor=#ffffff;dashed=0;verticalLabelPosition=bottom;verticalAlign=top;align=center;html=1;fontSize=12;fontStyle=0;aspect=fixed;shape=mxgraph.aws4.resourceIcon;resIcon=mxgraph.aws4.s3;labelBackgroundColor=#ffffff;" parent="1" vertex="1">
          <mxGeometry x="220.00000000000023" y="270" width="78" height="78" as="geometry" />
        </mxCell>
        <mxCell id="kIJDMvR2h0hwfvDSZGGV-17" style="edgeStyle=orthogonalEdgeStyle;rounded=0;orthogonalLoop=1;jettySize=auto;html=1;" edge="1" parent="1" source="kIJDMvR2h0hwfvDSZGGV-2">
          <mxGeometry relative="1" as="geometry">
            <mxPoint x="220" y="308.9999999999999" as="targetPoint" />
          </mxGeometry>
        </mxCell>
        <mxCell id="kIJDMvR2h0hwfvDSZGGV-2" value="Amazon EC2&lt;br&gt;&lt;b&gt;Scraper&lt;/b&gt;" style="sketch=0;points=[[0,0,0],[0.25,0,0],[0.5,0,0],[0.75,0,0],[1,0,0],[0,1,0],[0.25,1,0],[0.5,1,0],[0.75,1,0],[1,1,0],[0,0.25,0],[0,0.5,0],[0,0.75,0],[1,0.25,0],[1,0.5,0],[1,0.75,0]];outlineConnect=0;fontColor=#232F3E;fillColor=#ED7100;strokeColor=#ffffff;dashed=0;verticalLabelPosition=bottom;verticalAlign=top;align=center;html=1;fontSize=12;fontStyle=0;aspect=fixed;shape=mxgraph.aws4.resourceIcon;resIcon=mxgraph.aws4.ec2;" vertex="1" parent="1">
          <mxGeometry x="50.00000000000023" y="270" width="78" height="78" as="geometry" />
        </mxCell>
        <mxCell id="kIJDMvR2h0hwfvDSZGGV-5" value="Amazon Textract&lt;br&gt;&lt;b&gt;Parser&lt;/b&gt;" style="sketch=0;points=[[0,0,0],[0.25,0,0],[0.5,0,0],[0.75,0,0],[1,0,0],[0,1,0],[0.25,1,0],[0.5,1,0],[0.75,1,0],[1,1,0],[0,0.25,0],[0,0.5,0],[0,0.75,0],[1,0.25,0],[1,0.5,0],[1,0.75,0]];outlineConnect=0;fontColor=#232F3E;fillColor=#01A88D;strokeColor=#ffffff;dashed=0;verticalLabelPosition=bottom;verticalAlign=top;align=center;html=1;fontSize=12;fontStyle=0;aspect=fixed;shape=mxgraph.aws4.resourceIcon;resIcon=mxgraph.aws4.textract;" vertex="1" parent="1">
          <mxGeometry x="390.0000000000002" y="270" width="78" height="78" as="geometry" />
        </mxCell>
        <mxCell id="kIJDMvR2h0hwfvDSZGGV-11" value="API Gateway&lt;br&gt;" style="sketch=0;points=[[0,0,0],[0.25,0,0],[0.5,0,0],[0.75,0,0],[1,0,0],[0,1,0],[0.25,1,0],[0.5,1,0],[0.75,1,0],[1,1,0],[0,0.25,0],[0,0.5,0],[0,0.75,0],[1,0.25,0],[1,0.5,0],[1,0.75,0]];outlineConnect=0;fontColor=#232F3E;fillColor=#E7157B;strokeColor=#ffffff;dashed=0;verticalLabelPosition=bottom;verticalAlign=top;align=center;html=1;fontSize=12;fontStyle=0;aspect=fixed;shape=mxgraph.aws4.resourceIcon;resIcon=mxgraph.aws4.api_gateway;" vertex="1" parent="1">
          <mxGeometry x="560.0000000000002" y="270" width="78" height="78" as="geometry" />
        </mxCell>
        <mxCell id="kIJDMvR2h0hwfvDSZGGV-16" value="Amazon EC2&lt;br&gt;&lt;b&gt;Backend&lt;/b&gt;" style="sketch=0;points=[[0,0,0],[0.25,0,0],[0.5,0,0],[0.75,0,0],[1,0,0],[0,1,0],[0.25,1,0],[0.5,1,0],[0.75,1,0],[1,1,0],[0,0.25,0],[0,0.5,0],[0,0.75,0],[1,0.25,0],[1,0.5,0],[1,0.75,0]];outlineConnect=0;fontColor=#232F3E;fillColor=#ED7100;strokeColor=#ffffff;dashed=0;verticalLabelPosition=bottom;verticalAlign=top;align=center;html=1;fontSize=12;fontStyle=0;aspect=fixed;shape=mxgraph.aws4.resourceIcon;resIcon=mxgraph.aws4.ec2;" vertex="1" parent="1">
          <mxGeometry x="730.0000000000002" y="270" width="78" height="78" as="geometry" />
        </mxCell>
        <mxCell id="kIJDMvR2h0hwfvDSZGGV-21" style="edgeStyle=orthogonalEdgeStyle;rounded=0;orthogonalLoop=1;jettySize=auto;html=1;" edge="1" parent="1">
          <mxGeometry relative="1" as="geometry">
            <mxPoint x="390" y="308.6599999999999" as="targetPoint" />
            <mxPoint x="298" y="308.66" as="sourcePoint" />
          </mxGeometry>
        </mxCell>
        <mxCell id="kIJDMvR2h0hwfvDSZGGV-22" style="edgeStyle=orthogonalEdgeStyle;rounded=0;orthogonalLoop=1;jettySize=auto;html=1;" edge="1" parent="1">
          <mxGeometry relative="1" as="geometry">
            <mxPoint x="560" y="308.75999999999993" as="targetPoint" />
            <mxPoint x="468" y="308.76000000000005" as="sourcePoint" />
          </mxGeometry>
        </mxCell>
        <mxCell id="kIJDMvR2h0hwfvDSZGGV-23" style="edgeStyle=orthogonalEdgeStyle;rounded=0;orthogonalLoop=1;jettySize=auto;html=1;" edge="1" parent="1">
          <mxGeometry relative="1" as="geometry">
            <mxPoint x="730" y="308.75999999999993" as="targetPoint" />
            <mxPoint x="638" y="308.76000000000005" as="sourcePoint" />
          </mxGeometry>
        </mxCell>
        <mxCell id="kIJDMvR2h0hwfvDSZGGV-24" value="1" style="ellipse;whiteSpace=wrap;html=1;aspect=fixed;strokeWidth=2;fontFamily=Tahoma;spacingBottom=4;spacingRight=2;strokeColor=#d3d3d3;" vertex="1" parent="1">
          <mxGeometry x="79" y="394" width="20" height="20" as="geometry" />
        </mxCell>
        <mxCell id="kIJDMvR2h0hwfvDSZGGV-25" value="2" style="ellipse;whiteSpace=wrap;html=1;aspect=fixed;strokeWidth=2;fontFamily=Tahoma;spacingBottom=4;spacingRight=2;strokeColor=#d3d3d3;" vertex="1" parent="1">
          <mxGeometry x="249" y="394" width="20" height="20" as="geometry" />
        </mxCell>
        <mxCell id="kIJDMvR2h0hwfvDSZGGV-26" value="3" style="ellipse;whiteSpace=wrap;html=1;aspect=fixed;strokeWidth=2;fontFamily=Tahoma;spacingBottom=4;spacingRight=2;strokeColor=#d3d3d3;" vertex="1" parent="1">
          <mxGeometry x="419" y="394" width="20" height="20" as="geometry" />
        </mxCell>
        <mxCell id="kIJDMvR2h0hwfvDSZGGV-27" value="4" style="ellipse;whiteSpace=wrap;html=1;aspect=fixed;strokeWidth=2;fontFamily=Tahoma;spacingBottom=4;spacingRight=2;strokeColor=#d3d3d3;" vertex="1" parent="1">
          <mxGeometry x="589" y="394" width="20" height="20" as="geometry" />
        </mxCell>
        <mxCell id="kIJDMvR2h0hwfvDSZGGV-28" value="5" style="ellipse;whiteSpace=wrap;html=1;aspect=fixed;strokeWidth=2;fontFamily=Tahoma;spacingBottom=4;spacingRight=2;strokeColor=#d3d3d3;" vertex="1" parent="1">
          <mxGeometry x="759" y="394" width="20" height="20" as="geometry" />
        </mxCell>
        <mxCell id="kIJDMvR2h0hwfvDSZGGV-32" value="&lt;font style=&quot;font-size: 26px;&quot;&gt;&lt;b&gt;Fluxo - Scraper / Parser&lt;/b&gt;&lt;br&gt;Amazon Web Services&lt;/font&gt;" style="text;html=1;align=center;verticalAlign=middle;resizable=0;points=[];autosize=1;strokeColor=none;fillColor=none;" vertex="1" parent="1">
          <mxGeometry x="269" y="120" width="320" height="80" as="geometry" />
        </mxCell>
      </root>
    </mxGraphModel>
  </diagram>
</mxfile>
